<?xml version="1.0" standalone="no"?>
<!DOCTYPE svg PUBLIC "-//W3C//DTD SVG 1.1//EN" "http://www.w3.org/Graphics/SVG/1.1/DTD/svg11.dtd" >
<svg xmlns="http://www.w3.org/2000/svg">
<metadata>Generated by IcoMoon</metadata>
<defs>
<font id="agroPortal" horiz-adv-x="1024">
<font-face units-per-em="1024" ascent="960" descent="-64" />
<missing-glyph horiz-adv-x="1024" />
<glyph unicode="&#x20;" horiz-adv-x="512" d="" />
<glyph unicode="&#xe900;" glyph-name="arrow-left" horiz-adv-x="1280" d="M1248 386.26h-976.211l456.79-450.26h-177.155l-519.424 512 519.424 512h177.155l-456.79-450.26h976.211v-123.479z" />
<glyph unicode="&#xe901;" glyph-name="burger" d="M0 810.55h1024v-145.015h-1024v145.015zM0 520.45h1024v-145.016h-1024v145.016zM1024 230.451h-1024v-145.019h1024v145.019z" />
<glyph unicode="&#xe902;" glyph-name="chewron" d="M230.4 857.6l398.382-409.6-398.382-409.6h164.82l398.38 409.6-398.38 409.6h-164.82z" />
<glyph unicode="&#xe903;" glyph-name="eye" d="M512 373.53c45.245 0 81.92 33.341 81.92 74.47s-36.675 74.473-81.92 74.473c-45.244 0-81.923-33.343-81.923-74.473s36.678-74.47 81.923-74.47zM817.981 454.33c-24.090 56.643-65.91 105.628-120.289 140.901s-118.938 55.287-185.692 57.569c-66.756-2.282-131.314-22.296-185.693-57.569s-96.198-84.258-120.287-140.901c-1.627-4.091-1.627-8.568 0-12.659 24.089-56.643 65.907-105.631 120.287-140.902s118.937-55.286 185.693-57.569c66.755 2.284 131.313 22.298 185.692 57.569s96.2 84.26 120.289 140.902c1.623 4.091 1.623 8.568 0 12.659zM512 326.984c-26.33 0-52.067 7.096-73.959 20.393s-38.955 32.2-49.031 54.313c-10.076 22.113-12.712 46.445-7.576 69.92s17.815 45.039 36.433 61.963c18.618 16.925 42.338 28.451 68.162 33.12s52.59 2.273 76.915-6.886c24.325-9.16 45.117-24.671 59.745-44.572s22.436-43.299 22.436-67.234c-0.056-32.082-14.1-62.833-39.050-85.519-24.955-22.682-58.783-35.451-94.075-35.497z" />
<glyph unicode="&#xe904;" glyph-name="fb" d="M690.222 400.026l21.274 138.982h-132.987v90.192c0 38.016 18.57 75.096 78.136 75.096h60.452v118.32c0 0-54.851 9.384-107.31 9.384-109.514 0-181.095-66.576-181.095-187.080v-105.936h-121.742v-138.984h121.742v-336h149.817v336l111.713 0.026z" />
<glyph unicode="&#xe905;" glyph-name="inst" d="M511.882 567.518c-65.897 0-119.675-53.707-119.675-119.518 0-65.812 53.777-119.516 119.675-119.516 65.9 0 119.675 53.704 119.675 119.516 0 65.811-53.775 119.518-119.675 119.518zM870.815 448c0 49.492 0.451 98.537-2.33 147.94-2.785 57.383-15.892 108.31-57.907 150.271-42.107 42.051-93.015 55.051-150.472 57.831-49.556 2.78-98.668 2.331-148.134 2.331-49.558 0-98.666 0.449-148.135-2.331-57.458-2.78-108.452-15.87-150.469-57.831-42.106-42.051-55.124-92.889-57.907-150.271-2.783-49.492-2.334-98.537-2.334-147.94s-0.449-98.54 2.334-147.942c2.783-57.38 15.89-108.308 57.907-150.267 42.106-42.051 93.010-55.055 150.469-57.83 49.558-2.78 98.667-2.335 148.135-2.335 49.559 0 98.665-0.445 148.134 2.335 57.457 2.775 108.452 15.867 150.472 57.83 42.102 42.051 55.122 92.887 57.907 150.267 2.872 49.403 2.33 98.447 2.33 147.942zM511.882 264.105c-101.899 0-184.136 82.13-184.136 183.895s82.237 183.894 184.136 183.894c101.898 0 184.136-82.129 184.136-183.894s-82.237-183.895-184.136-183.895zM703.56 596.478c-23.793 0-43.003 19.187-43.003 42.948s19.21 42.947 43.003 42.947c23.793 0 43.003-19.187 43.003-42.947 0.010-5.642-1.101-11.23-3.256-16.444-2.161-5.214-5.33-9.951-9.324-13.941s-8.735-7.153-13.957-9.308c-5.222-2.156-10.819-3.262-16.466-3.255z" />
<glyph unicode="&#xe906;" glyph-name="link" d="M332.147 12.134c-50.629 0-100.12 15.012-142.217 43.136-42.097 28.129-74.909 68.106-94.286 114.877-19.378 46.776-24.452 98.243-14.58 147.901 9.872 49.654 34.246 95.273 70.040 131.076l108.595 108.646 72.397-72.397-108.595-108.594c-28.808-28.81-44.992-67.881-44.992-108.621s16.184-79.816 44.992-108.621c28.808-28.81 67.88-44.995 108.621-44.995s79.813 16.184 108.621 44.995l108.542 108.595 72.448-72.448-108.595-108.595c-23.722-23.844-51.938-42.742-83.014-55.608s-64.394-19.441-98.028-19.348h0.051zM368.345 231.936l-72.397 72.397 361.982 362.034 72.448-72.397-362.033-362.034zM766.628 340.531l-72.448 72.397 108.544 108.594c14.674 14.166 26.383 31.112 34.437 49.85s12.293 38.893 12.477 59.287c0.179 20.395-3.702 40.622-11.418 59.501-7.721 18.878-19.123 36.031-33.541 50.457s-31.565 25.834-50.437 33.562c-18.877 7.728-39.101 11.618-59.494 11.446-20.398-0.173-40.556-4.405-59.295-12.451-18.744-8.046-35.697-19.743-49.869-34.41l-108.644-108.595-72.397 72.397 108.593 108.646c48.215 47.002 113.009 73.115 180.342 72.684 67.328-0.432 131.784-27.373 179.389-74.988 47.611-47.615 74.542-112.071 74.962-179.403 0.425-67.332-25.697-132.12-72.709-180.328l-108.493-108.645z" />
<glyph unicode="&#xe907;" glyph-name="messanger" d="M76.8 480.259c0 222.551 194.861 402.941 435.2 402.941s435.2-180.39 435.2-402.995c0-222.551-194.862-402.939-435.2-402.939-43.411 0-85.299 5.929-124.848 16.86l-148.186-81.326v153.682c-98.899 73.871-162.166 186.972-162.166 313.777zM444.397 458.753l110.811-118.212 237.891 252.525-213.571-118.211-113.534 118.211-237.837-252.525 216.24 118.212z" />
<glyph unicode="&#xe908;" glyph-name="owlwebLogo" horiz-adv-x="1733" d="M1480.444 822.56c-64.851-65.070-128.323-128.755-127.464-128.755 209.573 0 379.943-165.812 379.943-370.358s-169.889-370.355-379.463-370.355c-184.659 0-377.060 157.861-486.999 265.883-110.174-107.864-302.579-265.883-487-265.883-209.57 0-379.461 165.809-379.461 370.355s169.891 370.358 378.982 370.358c1.041 0-71.188 72.472-140.272 141.789-63.316 63.529-123.989 124.406-123.187 124.406 44.070-0.772 207.574 0 207.574 0l542.884-549.672 542.885 549.672c0 0 163.509-0.772 207.573 0 0.985 0-68.261-69.475-135.995-137.44zM219.016 157.042c45.666-44.134 107.6-68.923 172.181-68.923 179.632 0 371.238 231.47 371.238 231.47s-199.59 239.19-371.238 239.19c-64.581 0-126.515-24.794-172.181-68.928s-71.319-103.99-71.319-166.404c0-62.414 25.654-122.271 71.319-166.406zM970.012 319.59c0 0 191.606-231.47 371.239-231.47 64.575 0 126.511 24.789 172.174 68.923 45.67 44.134 71.326 103.992 71.326 166.406s-25.655 122.271-71.326 166.404c-45.663 44.134-107.599 68.928-172.174 68.928-171.654 0-371.239-239.19-371.239-239.19zM865.816 103.928l85.417-82.542-88.355-85.386-85.409 82.55 88.348 85.378z" />
<glyph unicode="&#xe909;" glyph-name="rss" d="M757.734 38.4c0 359.475-295.859 655.334-655.334 655.334v163.866c449.331 0 819.2-369.869 819.2-819.2h-163.866zM214.656 263.194c29.83-0.056 58.423-11.93 79.516-33.019 21.093-21.094 32.967-49.69 33.021-79.519 0-61.875-50.79-112.256-112.794-112.256-61.875 0-112 50.278-112 112.256s50.406 112.538 112.256 112.538zM645.478 38.4h-159.334c0 210.534-173.21 383.872-383.744 383.872v159.206c297.856 0 543.078-245.197 543.078-543.078z" />
<glyph unicode="&#xe90a;" glyph-name="search" d="M420.682 835.677c-149.768 0-271.067-121.612-271.067-271.49s121.299-271.487 271.067-271.487c149.768 0 271.066 121.61 271.066 271.487s-121.298 271.49-271.066 271.49zM51.2 564.187c0 204.525 165.485 370.213 369.482 370.213 203.999 0 369.483-165.688 369.483-370.213 0-97.053-37.263-185.358-98.222-251.37l280.858-281.364-69.545-69.852-287.565 288.082c-56.607-35.313-123.436-55.706-195.009-55.706-203.997 0-369.482 165.683-369.482 370.211z" />
<glyph unicode="&#xe90b;" glyph-name="tik-tok" d="M530.115 856.909c45.051 0.691 89.846 0.282 134.589 0.691 2.708-52.252 21.658-105.478 60.232-142.42 38.492-37.864 92.943-55.197 145.92-61.059v-137.454c-49.649 1.613-99.528 11.854-144.579 33.052-19.62 8.807-37.898 20.148-55.793 31.746-0.23-99.743 0.415-199.358-0.645-298.691-2.683-47.718-18.565-95.212-46.551-134.533-45.025-65.464-123.175-108.145-203.443-109.476-49.235-2.79-98.418 10.527-140.372 35.052-69.528 40.653-118.452 115.077-125.578 194.954-0.898 16.916-1.036 33.864-0.413 50.79 6.196 64.952 38.598 127.089 88.891 169.355 57.006 49.231 136.86 72.682 211.629 58.806 0.697-50.563-1.342-101.073-1.342-151.638-34.157 10.957-74.072 7.885-103.917-12.672-21.836-14.264-38.337-35.251-46.963-59.73-7.126-17.306-5.086-36.531-4.673-54.912 8.184-56.018 62.505-103.096 120.492-98.002 38.442 0.41 75.284 22.528 95.318 54.912 6.482 11.346 13.737 22.943 14.126 36.28 3.379 61.056 2.038 121.861 2.452 182.922 0.282 137.606-0.415 274.829 0.645 412.001l-0.026 0.026z" />
<glyph unicode="&#xe90c;" glyph-name="tl" d="M844.16 801.687l-680.299-291.948c-46.428-20.752-46.159-49.576-8.518-62.43l174.66-60.636 404.113 283.751c19.108 12.938 36.567 5.978 22.216-8.199l-327.411-328.882-12.048-200.356c17.65 0 25.439 9.011 35.339 19.64l84.835 91.812 176.466-145.060c32.538-19.937 55.905-9.692 64 33.521l115.84 607.554c11.853 52.907-18.15 76.862-49.193 61.234z" />
<glyph unicode="&#xe90d;" glyph-name="youtube" d="M954.107 658.801c-5.222 18.604-15.401 35.446-29.45 48.738-14.444 13.7-32.148 23.5-51.441 28.475-72.202 18.996-361.469 18.996-361.469 18.996-120.593 1.37-241.156-4.654-361.009-18.037-19.293-5.342-36.963-15.362-51.441-29.166-14.225-13.662-24.528-30.509-29.911-48.968-12.93-69.528-19.212-140.125-18.761-210.839-0.461-70.651 5.805-141.225 18.761-210.836 5.267-18.386 15.533-35.154 29.796-48.701s32.026-23.332 51.556-28.513c73.163-18.959 361.009-18.959 361.009-18.959 120.748-1.372 241.462 4.654 361.469 18.038 19.292 4.977 36.997 14.776 51.441 28.477 14.223 13.542 24.335 30.392 29.414 48.737 13.266 69.499 19.717 140.124 19.261 210.877 0.993 71.048-5.448 142.007-19.226 211.72v-0.038zM419.783 316.6v262.761l240.671-131.398-240.671-131.364z" />
<glyph unicode="&#xe90e;" glyph-name="arrow-right" horiz-adv-x="1280" d="M32 509.74h976.211l-456.79 450.26h177.155l519.424-512-519.424-512h-177.155l456.79 450.26h-976.211v123.479z" />
<glyph unicode="&#xe90f;" glyph-name="done" horiz-adv-x="1229" d="M1129.923 916.8l-739.655-739.654-291.39 291.39-98.878-98.878 390.268-390.268 838.532 838.532-98.877 98.878z" />
<glyph unicode="&#xe910;" glyph-name="dropdown" d="M921.6 729.6l-409.6-398.382-409.6 398.382v-164.82l409.6-398.38 409.6 398.38v164.82z" />
<glyph unicode="&#xe911;" glyph-name="download" horiz-adv-x="916" d="M509.772 280.166v674.36h-98.294v-674.36l-358.425 363.619v-141.024l407.572-413.479 407.571 413.479v141.024l-358.424-363.619zM868.196-63.558v101.893h-815.143v-101.893h815.143z" />
<glyph unicode="&#xe912;" glyph-name="close" d="M103.131 960l-103.131-103.131 408.869-408.869-408.869-408.869 103.131-103.131 408.869 408.869 408.869-408.869 103.131 103.131-408.869 408.869 408.869 408.869-103.131 103.131-408.869-408.869-408.869 408.869z" />
<glyph unicode="&#xe913;" glyph-name="date" d="M864 880h-52v40c0 22.092-17.907 40-40 40s-40-17.908-40-40v-40h-182v40c0 22.092-17.908 40-40 40s-40-17.908-40-40v-40h-180v40c0 22.092-17.908 40-40 40s-40-17.908-40-40v-40h-50c-88.224 0-160-71.776-160-160v-624c0-88.224 71.776-160 160-160h306c22.092 0 40 17.907 40 40s-17.908 40-40 40h-306c-44.112 0-80 35.891-80 80v624c0 44.112 35.888 80 80 80h50v-40c0-22.092 17.908-40 40-40s40 17.908 40 40v40h180v-40c0-22.092 17.908-40 40-40s40 17.908 40 40v40h182v-40c0-22.092 17.907-40 40-40s40 17.908 40 40v40h52c44.109 0 80-35.888 80-80v-228c0-22.092 17.907-40 40-40s40 17.908 40 40v228c0 88.224-71.776 160-160 160zM772 500c22.093 0 40 17.908 40 40s-17.907 40-40 40c-22.093 0-40-17.908-40-40s17.907-40 40-40zM840 217.997h-17.997v42.003c0 22.093-17.914 40-40 40-22.093 0-40-17.907-40-40v-82.003c0-22.086 17.907-40 40-40h57.997c22.093 0 40 17.914 40 40 0 22.093-17.907 40-40 40zM540 177.997c0 133.446 108.557 242.003 242.003 242.003 133.44 0 241.997-108.557 241.997-242.003 0-133.44-108.557-241.997-241.997-241.997-133.446 0-242.003 108.557-242.003 241.997zM620 177.997c0-89.325 72.672-161.997 162.003-161.997 89.325 0 161.997 72.672 161.997 161.997 0 89.331-72.672 162.003-161.997 162.003-89.331 0-162.003-72.672-162.003-162.003zM638 540c0-22.092-17.908-40-40-40s-40 17.908-40 40c0 22.092 17.908 40 40 40s40-17.908 40-40zM424 326c22.092 0 40 17.908 40 40s-17.908 40-40 40c-22.092 0-40-17.908-40-40s17.908-40 40-40zM290 540c0-22.092-17.908-40-40-40s-40 17.908-40 40c0 22.092 17.908 40 40 40s40-17.908 40-40zM250 326c22.092 0 40 17.908 40 40s-17.908 40-40 40c-22.092 0-40-17.908-40-40s17.908-40 40-40zM290 192c0-22.093-17.908-40-40-40s-40 17.907-40 40c0 22.093 17.908 40 40 40s40-17.907 40-40zM424 152c22.092 0 40 17.907 40 40s-17.908 40-40 40c-22.092 0-40-17.907-40-40s17.908-40 40-40zM464 540c0-22.092-17.908-40-40-40s-40 17.908-40 40c0 22.092 17.908 40 40 40s40-17.908 40-40z" />
<glyph unicode="&#xe914;" glyph-name="up" d="M102.4 166.4l409.6 398.382 409.6-398.382v164.82l-409.6 398.38-409.6-398.38v-164.82z" />
<glyph unicode="&#xe915;" glyph-name="linkedin2" horiz-adv-x="1088" d="M412.365 603.187h190.157v-94.72c27.392 54.477 97.638 103.424 203.162 103.424 202.291 0 250.317-108.442 250.317-307.405v-368.486h-204.8v323.174c0 113.306-27.392 177.203-97.126 177.203-96.717 0-136.909-68.864-136.909-177.152v-323.226h-204.8v667.187zM61.184-55.296h204.8v667.187h-204.8v-667.187zM295.322 829.44c0.008-17.166-3.397-34.163-10.015-50.001s-16.319-30.204-28.538-42.261c-24.76-24.608-58.275-38.382-93.184-38.298-34.847 0.024-68.285 13.763-93.082 38.246-12.175 12.098-21.843 26.479-28.45 42.32s-10.023 32.83-10.053 49.994c0 34.662 13.824 67.84 38.554 92.314 24.775 24.517 58.227 38.262 93.082 38.246 34.918 0 68.403-13.773 93.133-38.246 24.678-24.474 38.554-57.651 38.554-92.314z" />
</font>
</defs>
</svg>
